<svg viewBox="0 0 113 25" fill="none" xmlns="http://www.w3.org/2000/svg">
  <path fill-rule="evenodd" clip-rule="evenodd" d="M21.423 11.198c.4-.96.62-2.011.62-3.115A8.1 8.1 0 0 0 14.458 0h13.43l-6.465 11.198Zm-1.036 1.794a8.086 8.086 0 0 1-6.443 3.19 8.087 8.087 0 0 1-6.442-3.189l6.442 11.158 6.443-11.16ZM6.464 11.196 0 0h13.43a8.1 8.1 0 0 0-6.966 11.196Z" fill="#2DD98F"/>
  <path d="M55.62 3.567h3.384L49.59 20.584h-3.766L36.386 3.567h3.384l7.937 14.3 7.913-14.3ZM60.871 3.567h2.837v17.017H60.87V3.567ZM78.998 3.567c.508 0 1.08.032 1.716.095.651.048 1.31.175 1.978.382a7.72 7.72 0 0 1 1.93.858c.636.365 1.2.866 1.693 1.501.508.62.913 1.399 1.215 2.336.302.922.453 2.034.453 3.337 0 1.303-.15 2.423-.453 3.36-.302.922-.707 1.7-1.215 2.336a6.295 6.295 0 0 1-1.692 1.502 9.075 9.075 0 0 1-1.931.858c-.667.19-1.327.317-1.978.38a23.14 23.14 0 0 1-1.716.072H75.28a24.1 24.1 0 0 1-1.74-.071 11.145 11.145 0 0 1-1.955-.381 9.628 9.628 0 0 1-1.954-.858 6.812 6.812 0 0 1-1.692-1.502c-.493-.635-.89-1.414-1.192-2.336-.302-.937-.453-2.057-.453-3.36s.151-2.415.453-3.337c.302-.937.7-1.716 1.192-2.336.508-.635 1.072-1.136 1.692-1.501a8.138 8.138 0 0 1 1.954-.858 8.842 8.842 0 0 1 1.955-.382 18.13 18.13 0 0 1 1.74-.095h3.718Zm-.072 14.42c1.24 0 2.24-.175 3.003-.525.779-.35 1.383-.802 1.812-1.358a4.806 4.806 0 0 0 .905-1.907 9.542 9.542 0 0 0 0-4.242 4.611 4.611 0 0 0-.905-1.883c-.43-.556-1.033-1.01-1.812-1.359-.762-.35-1.763-.524-3.003-.524h-3.575c-1.24 0-2.248.175-3.027.524-.762.35-1.366.803-1.811 1.359a4.778 4.778 0 0 0-.882 1.883 9.541 9.541 0 0 0 0 4.242c.159.7.453 1.335.882 1.907.445.556 1.049 1.009 1.811 1.358.779.35 1.788.524 3.027.524h3.575ZM109.399 3.567h2.836v17.017h-3.813l-15.015-13.8v13.8H90.57V3.567h3.79l15.039 13.8v-13.8Z" fill="#000"/>
</svg>
